<?xml version="1.0" standalone="no"?><!DOCTYPE svg PUBLIC "-//W3C//DTD SVG 1.1//EN" "http://www.w3.org/Graphics/SVG/1.1/DTD/svg11.dtd"><svg t="1594612263671" class="icon" viewBox="0 0 1024 1024" version="1.1" xmlns="http://www.w3.org/2000/svg" p-id="11433" xmlns:xlink="http://www.w3.org/1999/xlink" width="200" height="200"><defs><style type="text/css"></style></defs><path d="M799.61 927.92H228.07A123.67 123.67 0 0 1 104.4 804.25v-84.69a123.67 123.67 0 0 1 123.67-123.67h571.54a123.66 123.66 0 0 1 123.66 123.67v84.69a123.66 123.66 0 0 1-123.66 123.67z m41.78-124.23v-83.57a41.22 41.22 0 0 0-41.23-41.22H227.51a41.21 41.21 0 0 0-41.22 41.22v83.57a41.21 41.21 0 0 0 41.22 41.22h572.65a41.22 41.22 0 0 0 41.23-41.22z" fill="#ffffff" p-id="11434"></path><path d="M799.61 678.9H228.07A123.67 123.67 0 0 1 104.4 555.23v-84.69a123.67 123.67 0 0 1 123.67-123.67h571.54a123.66 123.66 0 0 1 123.66 123.67v84.69A123.66 123.66 0 0 1 799.61 678.9z m41.78-124.23V471.1a41.22 41.22 0 0 0-41.23-41.22H227.51a41.21 41.21 0 0 0-41.22 41.22v83.57a41.21 41.21 0 0 0 41.22 41.22h572.65a41.22 41.22 0 0 0 41.23-41.22z" fill="#ffffff" p-id="11435"></path><path d="M799.61 429.88H228.07A123.67 123.67 0 0 1 104.4 306.21v-84.69A123.67 123.67 0 0 1 228.07 97.85h571.54a123.66 123.66 0 0 1 123.66 123.67v84.69a123.66 123.66 0 0 1-123.66 123.67z m41.78-124.23v-83.57a41.22 41.22 0 0 0-41.23-41.22H227.51a41.21 41.21 0 0 0-41.22 41.22v83.57a41.21 41.21 0 0 0 41.22 41.22h572.65a41.22 41.22 0 0 0 41.23-41.22z" fill="#ffffff" p-id="11436"></path><path d="M268.18 263.86a40.94 41.5 0 1 0 81.88 0 40.94 41.5 0 1 0-81.88 0Z" fill="#ffffff" p-id="11437"></path><path d="M268.18 512.88a40.94 41.5 0 1 0 81.88 0 40.94 41.5 0 1 0-81.88 0Z" fill="#ffffff" p-id="11438"></path><path d="M268.18 761.9a40.94 41.5 0 1 0 81.88 0 40.94 41.5 0 1 0-81.88 0Z" fill="#ffffff" p-id="11439"></path></svg>