<?xml version="1.0" standalone="no"?><!DOCTYPE svg PUBLIC "-//W3C//DTD SVG 1.1//EN" "http://www.w3.org/Graphics/SVG/1.1/DTD/svg11.dtd"><svg t="1594611364038" class="icon" viewBox="0 0 1024 1024" version="1.1" xmlns="http://www.w3.org/2000/svg" p-id="6247" width="200" height="200" xmlns:xlink="http://www.w3.org/1999/xlink"><defs><style type="text/css"></style></defs><path d="M408.696091 504.897856m-225.977302 0a225.977301 225.977301 0 1 0 451.954603 0 225.977301 225.977301 0 1 0-451.954603 0Z" fill="#ffffff" p-id="6248"></path><path d="M602.390921 446.789407h-45.195461v-25.825977h32.282472l52.943253-77.477932h95.556116v25.825977h-82.643127zM505.543506 485.528373h232.433795v25.825978h-232.433795z" fill="#ffffff" p-id="6249"></path><path d="M737.977301 356.398487m-38.738966 0a38.738966 38.738966 0 1 0 77.477932 0 38.738966 38.738966 0 1 0-77.477932 0Z" fill="#ffffff" p-id="6250"></path><path d="M737.977301 408.050441c-28.408575 0-51.651955-23.24338-51.651954-51.651954s23.24338-51.651955 51.651954-51.651955 51.651955 23.24338 51.651955 51.651955-23.24338 51.651955-51.651955 51.651954z m0-77.477932c-14.204288 0-25.825977 11.62169-25.825977 25.825978s11.62169 25.825977 25.825977 25.825977 25.825977-11.62169 25.825978-25.825977-11.62169-25.825977-25.825978-25.825978zM737.977301 653.397226h-95.556116l-51.651954-77.477932h-85.225725v-25.825977h99.430012l50.360656 77.477931h82.643127z" fill="#ffffff" p-id="6251"></path><path d="M737.977301 640.484237m-38.738966 0a38.738966 38.738966 0 1 0 77.477932 0 38.738966 38.738966 0 1 0-77.477932 0Z" fill="#ffffff" p-id="6252"></path><path d="M737.977301 692.136192c-28.408575 0-51.651955-23.24338-51.651954-51.651955s23.24338-51.651955 51.651954-51.651955 51.651955 23.24338 51.651955 51.651955-23.24338 51.651955-51.651955 51.651955z m0-77.477932c-14.204288 0-25.825977 11.62169-25.825977 25.825977s11.62169 25.825977 25.825977 25.825977 25.825977-11.62169 25.825978-25.825977-11.62169-25.825977-25.825978-25.825977z" fill="#ffffff" p-id="6253"></path><path d="M737.977301 498.441362m-38.738966 0a38.738966 38.738966 0 1 0 77.477932 0 38.738966 38.738966 0 1 0-77.477932 0Z" fill="#ffffff" p-id="6254"></path><path d="M737.977301 550.093317c-28.408575 0-51.651955-23.24338-51.651954-51.651955s23.24338-51.651955 51.651954-51.651955 51.651955 23.24338 51.651955 51.651955-23.24338 51.651955-51.651955 51.651955z m0-77.477932c-14.204288 0-25.825977 11.62169-25.825977 25.825977s11.62169 25.825977 25.825977 25.825977 25.825977-11.62169 25.825978-25.825977-11.62169-25.825977-25.825978-25.825977zM608.847415 764.448928l-82.643127-123.964691h-98.138714v-25.825977h111.051702l91.68222 135.586381z" fill="#ffffff" p-id="6255"></path><path d="M621.760404 756.701135m-38.738966 0a38.738966 38.738966 0 1 0 77.477931 0 38.738966 38.738966 0 1 0-77.477931 0Z" fill="#ffffff" p-id="6256"></path><path d="M621.760404 808.35309c-28.408575 0-51.651955-23.24338-51.651955-51.651955s23.24338-51.651955 51.651955-51.651955 51.651955 23.24338 51.651954 51.651955-23.24338 51.651955-51.651954 51.651955z m0-77.477932c-14.204288 0-25.825977 11.62169-25.825978 25.825977s11.62169 25.825977 25.825978 25.825977 25.825977-11.62169 25.825977-25.825977-11.62169-25.825977-25.825977-25.825977zM539.117276 382.224464h-98.138714v-25.825977h85.225726l83.934426-98.138714 19.369483 16.786885z" fill="#ffffff" p-id="6257"></path><path d="M621.760404 266.007566m-38.738966 0a38.738966 38.738966 0 1 0 77.477931 0 38.738966 38.738966 0 1 0-77.477931 0Z" fill="#ffffff" p-id="6258"></path><path d="M621.760404 317.659521c-28.408575 0-51.651955-23.24338-51.651955-51.651955s23.24338-51.651955 51.651955-51.651954 51.651955 23.24338 51.651954 51.651954-23.24338 51.651955-51.651954 51.651955z m0-77.477932c-14.204288 0-25.825977 11.62169-25.825978 25.825977s11.62169 25.825977 25.825978 25.825978 25.825977-11.62169 25.825977-25.825978-11.62169-25.825977-25.825977-25.825977zM428.065574 485.528373h77.477932v25.825978h-77.477932zM286.022699 550.093317h219.520807v25.825977h-219.520807zM324.761665 485.528373h25.825977v25.825978h-25.825977zM376.413619 485.528373h25.825977v25.825978h-25.825977zM389.326608 356.398487h25.825977v25.825977h-25.825977zM376.413619 614.65826h25.825977v25.825977h-25.825977zM324.761665 614.65826h25.825977v25.825977h-25.825977zM505.543506 420.96343h25.825977v25.825977h-25.825977zM854.194199 420.96343h-25.825977v-193.69483c0-21.952081-16.786885-38.738966-38.738966-38.738966h-103.303909v-25.825977h103.303909c36.156368 0 64.564943 28.408575 64.564943 64.564943v193.69483zM828.368222 459.702396h25.825977v25.825977h-25.825977zM828.368222 511.354351h25.825977v25.825977h-25.825977zM273.10971 601.745271h25.825977v90.390921h-25.825977zM273.10971 717.962169h25.825977v25.825977h-25.825977zM453.891551 860.005044h-116.216898c-36.156368 0-64.564943-28.408575-64.564943-64.564943v-25.825977h25.825977v25.825977c0 21.952081 16.786885 38.738966 38.738966 38.738966h116.216898v25.825977zM789.629256 860.005044h-206.607818v-25.825977h206.607818c21.952081 0 38.738966-16.786885 38.738966-38.738966v-232.433796h25.825977v232.433796c0 36.156368-28.408575 64.564943-64.564943 64.564943z" fill="#ffffff" p-id="6259"></path><path d="M298.935687 524.267339h-25.825977v-38.738966c0-36.156368 28.408575-64.564943 64.564943-64.564943h142.042875v25.825977h-142.042875c-21.952081 0-38.738966 16.786885-38.738966 38.738966v38.738966zM273.10971 550.093317h25.825977v25.825977h-25.825977zM479.717528 834.179067h25.825978v25.825977h-25.825978zM531.369483 834.179067h25.825977v25.825977h-25.825977zM363.500631 382.224464h-25.825978c-36.156368 0-64.564943-28.408575-64.564943-64.564943v-90.390921c0-36.156368 28.408575-64.564943 64.564943-64.564943h219.520807v25.825977h-219.520807c-21.952081 0-38.738966 16.786885-38.738966 38.738966v90.390921c0 21.952081 16.786885 38.738966 38.738966 38.738966h25.825978v25.825977zM583.021438 162.703657h25.825977v25.825977h-25.825977zM634.673392 162.703657h25.825977v25.825977h-25.825977z" fill="#ffffff" p-id="6260"></path></svg>