<?xml version="1.0" standalone="no"?><!DOCTYPE svg PUBLIC "-//W3C//DTD SVG 1.1//EN" "http://www.w3.org/Graphics/SVG/1.1/DTD/svg11.dtd"><svg t="1594632230117" class="icon" viewBox="0 0 1024 1024" version="1.1" xmlns="http://www.w3.org/2000/svg" p-id="12580" width="200" height="200" xmlns:xlink="http://www.w3.org/1999/xlink"><defs><style type="text/css"></style></defs><path d="M791.272727 209.454545h-116.363636V186.181818a23.272727 23.272727 0 0 0-46.545455 0v23.272727H395.636364V186.181818a23.272727 23.272727 0 0 0-46.545455 0v23.272727h-116.363636a93.090909 93.090909 0 0 0-93.090909 93.09091v488.727272a93.090909 93.090909 0 0 0 93.090909 93.090909h558.545454a93.090909 93.090909 0 0 0 93.090909-93.090909V302.545455a93.090909 93.090909 0 0 0-93.090909-93.09091zM186.181818 302.545455a46.545455 46.545455 0 0 1 46.545455-46.545455h116.363636v23.272727a23.272727 23.272727 0 0 0 46.545455 0v-23.272727h232.727272v23.272727a23.272727 23.272727 0 0 0 46.545455 0v-23.272727h116.363636a46.545455 46.545455 0 0 1 46.545455 46.545455v69.818181H186.181818z m651.636364 488.727272a46.545455 46.545455 0 0 1-46.545455 46.545455H232.727273a46.545455 46.545455 0 0 1-46.545455-46.545455V418.909091h651.636364z" p-id="12581" fill="#8a8a8a"></path><path d="M302.545455 558.545455h139.636363a23.272727 23.272727 0 0 0 0-46.545455h-139.636363a23.272727 23.272727 0 0 0 0 46.545455zM302.545455 698.181818h139.636363a23.272727 23.272727 0 0 0 0-46.545454h-139.636363a23.272727 23.272727 0 0 0 0 46.545454zM581.818182 558.545455h139.636363a23.272727 23.272727 0 0 0 0-46.545455h-139.636363a23.272727 23.272727 0 0 0 0 46.545455zM581.818182 698.181818h139.636363a23.272727 23.272727 0 0 0 0-46.545454h-139.636363a23.272727 23.272727 0 0 0 0 46.545454z" p-id="12582" fill="#8a8a8a"></path></svg>