<?xml version="1.0" standalone="no"?><!DOCTYPE svg PUBLIC "-//W3C//DTD SVG 1.1//EN" "http://www.w3.org/Graphics/SVG/1.1/DTD/svg11.dtd"><svg t="1594285280948" class="icon" viewBox="0 0 1071 1024" version="1.1" xmlns="http://www.w3.org/2000/svg" p-id="5771" xmlns:xlink="http://www.w3.org/1999/xlink" width="209.1796875" height="200"><defs><style type="text/css"></style></defs><path d="M940.194373 0h-811.867007C57.616368 0 0 57.616368 0 128.327366v576.163683c0 70.710997 57.616368 128.327366 128.327366 128.327365h811.867007c70.710997 0 128.327366-57.616368 128.327366-128.327365v-576.163683c2.618926-70.710997-54.997442-128.327366-128.327366-128.327366z m57.616369 704.491049c0 31.42711-26.189258 54.997442-54.997443 54.997442H130.946292c-31.42711 0-54.997442-26.189258-54.997443-54.997442v-576.163683c0-31.42711 26.189258-54.997442 54.997443-54.997443h811.867007c31.42711 0 54.997442 26.189258 54.997443 54.997443v576.163683zM906.148338 948.051151h-204.276215v-20.951407c0-18.332481-13.094629-31.42711-31.42711-31.42711H377.12532c-18.332481 0-31.42711 13.094629-31.42711 31.42711v20.951407H144.040921c-20.951407 0-36.664962 15.713555-36.664962 36.664962S123.089514 1021.381074 144.040921 1021.381074h762.107417c20.951407 0 36.664962-15.713555 36.664961-36.664961s-15.713555-36.664962-36.664961-36.664962z" fill="#BFCBD9" p-id="5772"></path><path d="M898.29156 225.227621h-238.322251c-39.283887 0-73.329923 31.42711-73.329923 73.329924v238.32225c0 39.283887 31.42711 73.329923 73.329923 73.329924H759.488491c7.856777 0 13.094629-5.237852 13.094629-13.094629s-5.237852-13.094629-13.094629-13.09463h-96.900256c-23.570332 0-44.521739-20.951407-44.521739-44.521739v-238.32225c0-23.570332 20.951407-44.521739 44.521739-44.52174h238.322251c23.570332 0 44.521739 20.951407 44.521739 44.52174V471.40665c-5.237852-2.618926-7.856777-2.618926-13.094629-2.618926h-31.42711c-34.046036 0-62.85422 28.808184-62.85422 62.85422v39.283887c0 18.332481 15.713555 34.046036 34.046036 34.046036h28.808184c39.283887 0 73.329923-31.42711 73.329923-73.329923v-238.322251c-2.618926-34.046036-36.664962-68.092072-75.948849-68.092072zM942.813299 536.879795c0 23.570332-20.951407 44.521739-44.521739 44.52174h-28.808184c-2.618926 0-7.856777-2.618926-7.856778-7.856778v-39.283887c0-20.951407 15.713555-36.664962 36.664962-36.664962h31.42711c7.856777 0 13.094629 5.237852 13.094629 13.094629v26.189258z" fill="#BFCBD9" p-id="5773"></path><path d="M667.826087 335.222506h235.703325c7.856777 0 13.094629-5.237852 13.094629-13.094629s-5.237852-13.094629-13.094629-13.094629h-235.703325c-7.856777 0-13.094629 5.237852-13.094629 13.094629s5.237852 13.094629 13.094629 13.094629zM667.826087 424.265985h235.703325c7.856777 0 13.094629-5.237852 13.094629-13.09463s-5.237852-13.094629-13.094629-13.094629h-235.703325c-7.856777 0-13.094629 5.237852-13.094629 13.094629s5.237852 13.094629 13.094629 13.09463zM806.629156 484.501279h-138.803069c-7.856777 0-13.094629 5.237852-13.094629 13.094629s5.237852 13.094629 13.094629 13.094629h138.803069c7.856777 0 13.094629-5.237852 13.094629-13.094629s-5.237852-13.094629-13.094629-13.094629zM403.314578 620.685422c31.42711 0 54.997442-26.189258 54.997442-54.997442 0-31.42711-26.189258-54.997442-54.997442-54.997443-31.42711 0-54.997442 26.189258-54.997442 54.997443-2.618926 28.808184 23.570332 54.997442 54.997442 54.997442z m0-89.043478c18.332481 0 34.046036 15.713555 34.046036 34.046036 0 18.332481-15.713555 34.046036-34.046036 34.046035s-34.046036-15.713555-34.046036-34.046035c0-20.951407 15.713555-34.046036 34.046036-34.046036zM277.606138 377.12532c0-20.951407-18.332481-39.283887-39.283887-39.283888s-39.283887 18.332481-39.283888 39.283888 18.332481 39.283887 39.283888 39.283887 39.283887-18.332481 39.283887-39.283887z m-52.378517 0c0-7.856777 7.856777-15.713555 15.713555-15.713555s15.713555 7.856777 15.713555 15.713555-7.856777 15.713555-15.713555 15.713555-15.713555-5.237852-15.713555-15.713555z" fill="#BFCBD9" p-id="5774"></path><path d="M552.59335 649.493606h-62.85422c20.951407-23.570332 34.046036-52.378517 34.046036-83.805626 0-49.759591-28.808184-91.662404-70.710997-109.994885l-128.327366-102.138108h-2.618926c-7.856777-23.570332-23.570332-41.902813-47.140665-52.378516v-2.618926L240.941176 235.703325h104.757034c7.856777 10.475703 23.570332 18.332481 39.283887 18.332481 23.570332 0 41.902813-15.713555 47.140665-39.283888h20.951407c5.237852 31.42711 31.42711 52.378517 62.85422 52.378517 13.094629 0 26.189258-5.237852 39.283887-13.094629 5.237852-2.618926 5.237852-10.475703 2.618926-15.713555-2.618926-5.237852-10.475703-5.237852-15.713555-2.618926-7.856777 5.237852-15.713555 7.856777-23.570332 7.856777-23.570332 0-41.902813-18.332481-41.902814-41.902813s18.332481-41.902813 41.902814-41.902813c10.475703 0 18.332481 2.618926 26.189258 10.475703 5.237852 5.237852 13.094629 2.618926 15.713555-2.618926 5.237852-5.237852 2.618926-13.094629-2.618926-15.713555-10.475703-10.475703-26.189258-15.713555-39.283887-15.713555-31.42711 0-57.616368 20.951407-62.85422 49.759591h-20.951407c-13.094629-13.094629-31.42711-28.808184-52.378517-28.808184-13.094629 0-23.570332 5.237852-31.42711 13.094629H238.322251 235.703325c-10.475703-10.475703-23.570332-15.713555-36.664962-15.713555-28.808184 0-49.759591 23.570332-49.759591 49.759591 0 7.856777 2.618926 13.094629 5.237852 20.951406l7.856778 120.470589c-2.618926 10.475703-5.237852 20.951407-5.237852 31.42711 0 34.046036 20.951407 65.473146 49.759591 78.567775l78.567775 112.61381c0 31.42711 13.094629 60.235294 34.046035 81.186701h-130.946291c-13.094629 0-20.951407 10.475703-20.951407 20.951407 0 13.094629 10.475703 20.951407 20.951407 20.951406h364.03069c13.094629 0 20.951407-10.475703 20.951407-20.951406 2.618926-10.475703-7.856777-20.951407-20.951407-20.951407zM180.705882 314.2711l-5.237851-62.85422c7.856777 2.618926 15.713555 5.237852 23.570332 5.237851 7.856777 0 15.713555-2.618926 23.570333-5.237851l23.570332 41.902813h-5.237852c-23.570332-2.618926-44.521739 7.856777-60.235294 20.951407z m227.846548-107.375959c0 13.094629-10.475703 26.189258-26.189259 26.189258-13.094629 0-26.189258-10.475703-26.189258-26.189258s10.475703-26.189258 26.189258-26.189259 26.189258 10.475703 26.189259 26.189259z m-70.710998-13.094629c0 5.237852-2.618926 7.856777-2.618926 13.094629v5.237851H248.797954v-5.237851c0-5.237852 0-7.856777-2.618926-13.094629h91.662404z m-138.803069-15.713555c15.713555 0 28.808184 13.094629 28.808184 28.808184s-15.713555 26.189258-28.808184 26.189258-28.808184-13.094629-28.808184-26.189258S183.324808 178.086957 199.038363 178.086957z m-23.570332 199.038363c0-36.664962 28.808184-65.473146 65.473145-65.473146s65.473146 28.808184 65.473146 65.473146-28.808184 65.473146-65.473146 65.473145-65.473146-28.808184-65.473145-65.473145z m65.473145 89.043478c47.140665 0 83.805627-36.664962 86.424553-83.805627l75.948849 60.235294c-57.616368 0-104.757033 39.283887-117.851662 91.662405l-47.140665-68.092072h2.618925z m96.900256 172.849105c-20.951407-18.332481-31.42711-44.521739-31.42711-73.329923 0-54.997442 44.521739-99.519182 99.519182-99.519182 54.997442 0 99.519182 44.521739 99.519181 99.519182 0 28.808184-13.094629 54.997442-34.046035 73.329923-2.618926 2.618926-5.237852 7.856777-2.618926 10.475703H340.460358c0-5.237852 0-7.856777-2.618926-10.475703z" fill="#BFCBD9" p-id="5775"></path></svg>