<?xml version="1.0" standalone="no"?><!DOCTYPE svg PUBLIC "-//W3C//DTD SVG 1.1//EN" "http://www.w3.org/Graphics/SVG/1.1/DTD/svg11.dtd"><svg t="1594609373912" class="icon" viewBox="0 0 1024 1024" version="1.1" xmlns="http://www.w3.org/2000/svg" p-id="2483" width="200" height="200" xmlns:xlink="http://www.w3.org/1999/xlink"><defs><style type="text/css"></style></defs><path d="M430.6 773.7c-19.4 0-39.6-3.8-58.5-11.4-39.4-16-64.2-45.8-66.4-79.8-3.3-52.3 30.8-90 91.2-101.1 10.2-1.9 36.1-9.2 53.9-19.8-4.5-5.9-8.2-12.3-10.9-19.2-42.6 3.9-129.4 4.7-167-45.6-26-34.8-27.1-91.8-2.7-138.7 19.7-37.7 50.8-59.5 85.9-58.6 52.3 1.6 86.6 39.1 91.9 100.3 0.9 10.1 5.4 34.8 13.5 53.2 6.4-5.6 13.7-10.2 21.6-13.6-5-41.8-8.3-126.4 38.9-165 33.7-27.5 90.7-31 138.5-8.6 38.5 18 61.7 49.1 62.1 83.2 0.6 52.2-35.4 88.2-96.3 96.1-9.4 1.2-33.5 6.6-51.6 15.3 6.3 7.3 11.3 15.7 14.7 24.7 44.9-5.7 123.3-7.8 161 36.9 28 33.3 32.4 90.1 10.7 138.3-17.4 38.8-48.2 62.6-82.3 63.5-53.2 1.4-88.7-34-97.6-94.8-1.8-11.7-7.9-36.1-17.2-53.5-6.8 5.4-14.3 9.6-22.5 12.6 7.5 48.8 9.8 120.8-31.5 158.2-19.7 18-48.7 27.4-79.4 27.4zM500.5 564l-9.2 10.7c-26.2 30.5-86.9 42-87.5 42.1-24.6 4.5-64.9 18.6-62 63.4 1.8 28.6 31.3 43.6 43.9 48.7 36.2 14.6 78.2 10.8 100.2-9.1 35.5-32.3 22.3-116.6 17.4-141.7l-2.8-14.1z m177.8 141.9h0.4-0.4zM567.7 525l10.2 9.4c29.3 27 38.9 88.5 39 89.1 3.7 24.9 16.4 65.2 61 64.4 28.7-0.8 44.8-29.8 50.4-42.2 15.9-35.5 13.6-77.7-5.4-100.4-25.2-30-90.8-31.1-144-22.1l-11.2 1.8z m-99.2-20l2.4 15c1.8 11.4 8 21.5 17.4 28.5l13.6 10 17.1-1.8c12.9-1.4 24.4-8.3 31.7-19.1l9.2-13.7-2-16.4c-1.7-13.6-9.9-25.9-21.9-32.8l-13.9-7.9-15.7 3c-13.1 2.5-24.2 10.5-30.6 22.1l-7.3 13.1z m-115-169.6c-27.9 0-45.2 27.3-51.4 39.2-17.9 34.5-18.1 76.7-0.4 100.5 26.7 35.7 106.2 35.5 149 29.7l5.1-0.7-8.3-8c-29.4-28.2-35.4-92.4-35.4-93-2.1-24.9-12.4-66.3-57.1-67.7-0.6 0.1-1 0-1.5 0z m241-48.3c-19.4 0-37.4 5.1-49.8 15.2-31.2 25.5-32.4 95-23.9 146.8l1.3 7.6 10-10.3c27.7-28.6 88.7-37 89.3-37.1 24.8-3.2 65.7-15.3 65.2-60-0.3-28.7-29-45.2-41.4-51-16.3-7.4-34.1-11.2-50.7-11.2z" fill="#ffffff" p-id="2484"></path><path d="M513.4 898.1c-211.7 0-383.9-172.2-383.9-383.9s172.2-383.9 383.9-383.9 383.9 172.2 383.9 383.9-172.2 383.9-383.9 383.9z m0-731.7c-191.8 0-347.8 156-347.8 347.8S321.6 862 513.4 862s347.8-156 347.8-347.8c0-191.7-156-347.8-347.8-347.8z" fill="#ffffff" p-id="2485"></path><path d="M512.9 591c-43.4 0-78.6-35.3-78.6-78.6s35.3-78.6 78.6-78.6 78.6 35.3 78.6 78.6-35.3 78.6-78.6 78.6z m0-121.1c-23.5 0-42.5 19.1-42.5 42.5 0 23.5 19.1 42.5 42.5 42.5s42.5-19.1 42.5-42.5c0-23.5-19.1-42.5-42.5-42.5z" fill="#ffffff" p-id="2486"></path></svg>