<?xml version="1.0" standalone="no"?><!DOCTYPE svg PUBLIC "-//W3C//DTD SVG 1.1//EN" "http://www.w3.org/Graphics/SVG/1.1/DTD/svg11.dtd"><svg t="1594617515712" class="icon" viewBox="0 0 1024 1024" version="1.1" xmlns="http://www.w3.org/2000/svg" p-id="11709" xmlns:xlink="http://www.w3.org/1999/xlink" width="200" height="200"><defs><style type="text/css"></style></defs><path d="M622.4 821.1H413.5c-46.6 0-84.5-37.9-84.5-84.5v-4.8c0-11.2-9.1-20.2-20.3-20.2H225c-84.2 0-155.4-68.6-155.4-149.9V338.5c0-74.1 60.3-134.4 134.4-134.4h611.5c74.1 0 134.4 60.3 134.4 134.4v238.7c0 74.1-60.3 134.4-134.4 134.4H727c-11.2 0-20.3 9.1-20.3 20.2v4.8c0.2 46.6-37.7 84.5-84.3 84.5zM204.1 245.4c-51.3 0-93.1 41.7-93.1 93v223.1c0 57.8 53.3 108.6 114.1 108.6h83.7c33.9 0 61.6 27.6 61.6 61.6v4.8c0 23.8 19.4 43.2 43.2 43.2h208.9c23.8 0 43.2-19.4 43.2-43.2v-4.8c0-33.9 27.6-61.6 61.6-61.6h88.5c51.3 0 93.1-41.7 93.1-93.1V338.5c0-51.3-41.7-93-93.1-93H204.1z" fill="#ffffff" p-id="11710"></path><path d="M753 413.9h75c2.8 0 5-2.2 5-5v-5.7c0-41-33.2-74.3-74.3-74.3H753c-2.8 0-5 2.2-5 5v75c0 2.8 2.3 5 5 5zM569.2 413.9h75c2.8 0 5-2.2 5-5v-5.7c0-41-33.2-74.3-74.3-74.3h-5.7c-2.8 0-5 2.2-5 5v75c0 2.8 2.2 5 5 5zM385.9 413.9h75c2.8 0 5-2.2 5-5v-5.7c0-41-33.2-74.3-74.3-74.3h-5.7c-2.8 0-5 2.2-5 5v75c0 2.8 2.2 5 5 5zM202 413.9h75c2.8 0 5-2.2 5-5v-5.7c0-41-33.2-74.3-74.3-74.3H202c-2.8 0-5 2.2-5 5v75c0 2.8 2.3 5 5 5zM753 570.3h75c2.8 0 5-2.2 5-5v-5.7c0-41-33.2-74.3-74.3-74.3H753c-2.8 0-5 2.2-5 5v75c0 2.7 2.3 5 5 5zM569.2 570.3h75c2.8 0 5-2.2 5-5v-5.7c0-41-33.2-74.3-74.3-74.3h-5.7c-2.8 0-5 2.2-5 5v75c0 2.7 2.2 5 5 5zM385.9 570.3h75c2.8 0 5-2.2 5-5v-5.7c0-41-33.2-74.3-74.3-74.3h-5.7c-2.8 0-5 2.2-5 5v75c0 2.7 2.2 5 5 5zM202 570.3h75c2.8 0 5-2.2 5-5v-5.7c0-41-33.2-74.3-74.3-74.3H202c-2.8 0-5 2.2-5 5v75c0 2.7 2.3 5 5 5z" fill="#ffffff" p-id="11711"></path></svg>