<?xml version="1.0" standalone="no"?><!DOCTYPE svg PUBLIC "-//W3C//DTD SVG 1.1//EN" "http://www.w3.org/Graphics/SVG/1.1/DTD/svg11.dtd"><svg t="1594611732840" class="icon" viewBox="0 0 1024 1024" version="1.1" xmlns="http://www.w3.org/2000/svg" p-id="10850" xmlns:xlink="http://www.w3.org/1999/xlink" width="200" height="200"><defs><style type="text/css"></style></defs><path d="M320 64 256 64 0 64l0 62.016L0 384l128 0 0 64 128 0 0 128 141.568 0c6.336-22.336 14.784-43.712 25.152-64L320 512 320 448l144.448 0c20.096-24.384 43.648-45.824 69.504-64L320 384 320 128l640 0 0 256 0 16.448c24.384 20.096 45.824 43.648 64 69.504L1024 64 320 64zM256 256l0 128L192 384 192 320 128 320 64 320 64 128l192 0L256 256zM736 384C577.216 384 448 513.216 448 672S577.216 960 736 960s288-129.216 288-288S894.784 384 736 384zM736 896C612.48 896 512 795.52 512 672S612.48 448 736 448 960 548.48 960 672 859.52 896 736 896zM704 512l64 0 0 192-64 0L704 512zM704 768l64 0 0 64-64 0L704 768z" p-id="10851" fill="#ffffff"></path></svg>