<?xml version="1.0" standalone="no"?><!DOCTYPE svg PUBLIC "-//W3C//DTD SVG 1.1//EN" "http://www.w3.org/Graphics/SVG/1.1/DTD/svg11.dtd"><svg t="1594611092286" class="icon" viewBox="0 0 1024 1024" version="1.1" xmlns="http://www.w3.org/2000/svg" p-id="3396" xmlns:xlink="http://www.w3.org/1999/xlink" width="200" height="200"><defs><style type="text/css"></style></defs><path d="M512 42.666667c259.2 0 469.333333 210.133333 469.333333 469.333333s-210.133333 469.333333-469.333333 469.333333S42.666667 771.2 42.666667 512 252.8 42.666667 512 42.666667z m0 64C288.149333 106.666667 106.666667 288.149333 106.666667 512s181.482667 405.333333 405.333333 405.333333 405.333333-181.482667 405.333333-405.333333S735.850667 106.666667 512 106.666667z m-124.608 219.178666a32 32 0 1 1 35.626667 53.141334 160 160 0 1 0 178.197333 0.170666 32 32 0 0 1 35.733333-53.077333A223.786667 223.786667 0 0 1 736 512c0 123.712-100.288 224-224 224S288 635.712 288 512c0-75.605333 37.76-144.853333 99.392-186.154667zM512 266.666667a32 32 0 0 1 31.850667 28.928L544 298.666667v149.333333a32 32 0 0 1-63.850667 3.072L480 448v-149.333333a32 32 0 0 1 32-32z" fill="#ffffff" p-id="3397"></path></svg>