<?xml version="1.0" standalone="no"?><!DOCTYPE svg PUBLIC "-//W3C//DTD SVG 1.1//EN" "http://www.w3.org/Graphics/SVG/1.1/DTD/svg11.dtd"><svg t="1594611202486" class="icon" viewBox="0 0 1024 1024" version="1.1" xmlns="http://www.w3.org/2000/svg" p-id="4311" xmlns:xlink="http://www.w3.org/1999/xlink" width="200" height="200"><defs><style type="text/css"></style></defs><path d="M512 993.3c-163.2 0-296-132.8-296-296 0-97.5 47.4-187 127.5-242.7V199.2c0-92.9 75.6-168.5 168.5-168.5s168.5 75.6 168.5 168.5v255.5C760.6 510.3 808 599.8 808 697.3c0 163.2-132.8 296-296 296z m0-904.5c-60.9 0-110.4 49.5-110.4 110.4v271.1c0 10.1-5.2 19.4-13.8 24.7-71.2 44-113.7 119.6-113.7 202.3 0 131.2 106.7 237.9 237.9 237.9s237.9-106.7 237.9-237.9c0-82.7-42.5-158.3-113.7-202.3a28.94 28.94 0 0 1-13.8-24.7V199.2c0-60.9-49.5-110.4-110.4-110.4z" fill="#ffffff" p-id="4312"></path><path d="M773 255.4H659.1c-16 0-29-13-29-29s13-29 29-29H773c16 0 29 13 29 29s-13 29-29 29zM514.5 598.9c-16 0-29-13-29-29V168.6c0-16 13-29 29-29s29 13 29 29v401.2c0.1 16-12.9 29.1-29 29.1zM773 340.4H659.1c-16 0-29-13-29-29s13-29 29-29H773c16 0 29 13 29 29s-13 29-29 29zM773 425.4H659.1c-16 0-29-13-29-29s13-29 29-29H773c16 0 29 13 29 29s-13 29-29 29z" fill="#ffffff" p-id="4313"></path><path d="M512.5 841.8c-78.1 0-141.6-63.5-141.6-141.6s63.5-141.6 141.6-141.6 141.6 63.5 141.6 141.6-63.5 141.6-141.6 141.6z m0-225.1c-46 0-83.5 37.5-83.5 83.5s37.4 83.5 83.5 83.5 83.5-37.4 83.5-83.5-37.5-83.5-83.5-83.5z" fill="#ffffff" p-id="4314"></path></svg>